<svg xmlns="http://www.w3.org/2000/svg" viewBox="0 0 120 210"><rect width="120" height="210" fill="#FFFFFF"/><path d="M60 4 c6 0 11 5 11 11 c0 4 -2 8 -5 10 l8 3 c9 3 17 8 17 16 l3 30 c1 9 -1 12 -4 12 c-3 0 -5 -3 -6 -10 l-2 26 l3 22 c1 8 -1 20 -3 30 c-2 10 -3 22 -3 32 c0 6 -6 6 -7 0 l-4 -34 l-3 -22 l-2 22 l-4 34 c-1 6 -7 6 -7 0 c0 -10 -1 -22 -3 -32 c-2 -10 -4 -22 -3 -30 l3 -22 l-2 -26 c-1 7 -3 10 -6 10 c-3 0 -5 -3 -4 -12 l3 -30 c0 -8 8 -13 17 -16 l8 -3 c-3 -2 -5 -6 -5 -10 c0 -6 5 -11 11 -11 Z" fill="#9aa0ab88" stroke="#9aa0ab33" stroke-width="1"/><ellipse cx="33" cy="40" rx="8" ry="7" fill="#FF6B3577"/><ellipse cx="87" cy="40" rx="8" ry="7" fill="#FF6B3577"/><ellipse cx="60" cy="64" rx="8" ry="6" fill="#FF6B3577"/><ellipse cx="60" cy="78" rx="8" ry="6" fill="#FF6B3577"/><ellipse cx="51" cy="122" rx="7" ry="16" fill="#FF6B35"/><ellipse cx="69" cy="122" rx="7" ry="16" fill="#FF6B35"/></svg>